<svg id="Layer_1_1_" enable-background="new 0 0 64 64" height="512" viewBox="0 0 64 64" width="512" xmlns="http://www.w3.org/2000/svg"><path d="m9 62h2 2c3.86 0 7-3.141 7-7 0-.553-.448-1-1-1h-2c-2.548 0-4.775 1.373-6 3.413-1.225-2.04-3.452-3.413-6-3.413h-2c-.552 0-1 .447-1 1 0 3.859 3.14 7 7 7zm8-6h.899c-.464 2.279-2.485 4-4.899 4h-.899c.464-2.279 2.484-4 4.899-4zm-12 0c2.415 0 4.435 1.721 4.899 4h-.899c-2.415 0-4.435-1.721-4.899-4z"/><path d="m61 54h-2c-2.548 0-4.775 1.373-6 3.413-1.225-2.04-3.452-3.413-6-3.413h-2c-.552 0-1 .447-1 1 0 3.859 3.14 7 7 7h2 2c3.86 0 7-3.141 7-7 0-.553-.448-1-1-1zm-10 6c-2.415 0-4.435-1.721-4.899-4h.899c2.415 0 4.435 1.721 4.899 4zm4 0h-.899c.464-2.279 2.485-4 4.899-4h.899c-.464 2.279-2.484 4-4.899 4z"/><path d="m40 29c0-.553-.448-1-1-1h-14c-.552 0-1 .447-1 1 0 2.414 1.721 4.434 4 4.899v1.101c-.552 0-1 .447-1 1v25c0 .553.448 1 1 1h8c.552 0 1-.447 1-1v-25c0-.553-.448-1-1-1v-1.101c2.279-.465 4-2.485 4-4.899zm-13.829 1h11.657c-.413 1.164-1.525 2-2.829 2h-6c-1.303 0-2.415-.836-2.828-2zm8.829 30h-6v-23h6zm-5-25v-1h4v1z"/><path d="m21.065 32.644h2v2h-2z" transform="matrix(.356 -.935 .935 .356 -17.229 42.289)"/><path d="m2.376 25.524h2v2h-2z" transform="matrix(.356 -.935 .935 .356 -22.613 20.238)"/><path d="m7.048 27.304h2v2h-2z" transform="matrix(.356 -.935 .935 .356 -21.267 25.751)"/><path d="m16.393 30.864h2v2h-2z" transform="matrix(.356 -.935 .935 .356 -18.575 36.776)"/><path d="m11.721 29.084h2v2h-2z" transform="matrix(.356 -.935 .935 .356 -19.921 31.264)"/><path d="m14.52 11.432h2v2h-2z" transform="matrix(.848 -.529 .529 .848 -4.228 10.102)"/><path d="m22.47 24.152h2.001v2h-2.001z" transform="matrix(.848 -.53 .53 .848 -9.763 16.261)"/><path d="m17.17 15.672h2v1.999h-2z" transform="matrix(.848 -.53 .53 .848 -6.075 12.169)"/><path d="m19.82 19.912h2v1.999h-2z" transform="matrix(.848 -.53 .53 .848 -7.92 14.219)"/><path d="m54.952 27.304h2v2h-2z" transform="matrix(.935 -.356 .356 .935 -6.41 21.769)"/><path d="m45.607 30.864h2v2h-2z" transform="matrix(.935 -.356 .356 .935 -8.289 18.676)"/><path d="m59.624 25.524h2v2h-2z" transform="matrix(.935 -.356 .356 .935 -5.471 23.321)"/><path d="m50.279 29.084h2v2h-2z" transform="matrix(.935 -.356 .356 .935 -7.35 20.222)"/><path d="m40.935 32.644h2v2h-2z" transform="matrix(.935 -.356 .356 .935 -9.229 17.129)"/><path d="m39.53 24.152h2v2.001h-2z" transform="matrix(.53 -.848 .848 .53 -2.283 46.184)"/><path d="m47.48 11.432h2v2h-2z" transform="matrix(.529 -.848 .848 .529 12.267 46.978)"/><path d="m44.83 15.672h1.999v2h-1.999z" transform="matrix(.53 -.848 .848 .53 7.39 46.684)"/><path d="m42.18 19.912h1.999v2h-1.999z" transform="matrix(.53 -.848 .848 .53 2.551 46.428)"/><path d="m13.068 41.729h2v2.001h-2z" transform="matrix(.903 -.43 .43 .903 -16.991 10.186)"/><path d="m17.583 39.58h2v1.999h-2z" transform="matrix(.903 -.43 .43 .903 -15.654 11.946)"/><path d="m22.097 37.431h2v1.999h-2z" transform="matrix(.903 -.43 .43 .903 -14.29 13.68)"/><path d="m4.04 46.029h2v1.999h-2z" transform="matrix(.903 -.43 .43 .903 -19.739 6.741)"/><path d="m8.554 43.879h2v2.001h-2z" transform="matrix(.903 -.43 .43 .903 -18.352 8.456)"/><path d="m44.417 39.58h1.999v2h-1.999z" transform="matrix(.43 -.903 .903 .43 -10.752 64.125)"/><path d="m39.903 37.43h1.999v2h-1.999z" transform="matrix(.43 -.903 .903 .43 -11.385 58.825)"/><path d="m53.445 43.879h2.001v2h-2.001z" transform="matrix(.43 -.903 .903 .43 -9.475 74.754)"/><path d="m48.931 41.73h2.001v2h-2.001z" transform="matrix(.43 -.903 .903 .43 -10.109 69.453)"/><path d="m57.96 46.029h1.999v2h-1.999z" transform="matrix(.43 -.903 .903 .43 -8.857 80.027)"/></svg>